<?xml version="1.0" standalone="no"?>
<!DOCTYPE svg PUBLIC "-//W3C//DTD SVG 20010904//EN"
 "http://www.w3.org/TR/2001/REC-SVG-20010904/DTD/svg10.dtd">
<svg version="1.0" xmlns="http://www.w3.org/2000/svg"
 width="256.000000pt" height="256.000000pt" viewBox="0 0 256.000000 256.000000"
 preserveAspectRatio="xMidYMid meet">

<g transform="translate(0.000000,256.000000) scale(0.100000,-0.100000)"
fill="#000000" stroke="none">
<path d="M1257 2224 c-4 -4 -7 -103 -7 -219 l0 -212 -276 -268 c-282 -275
-295 -292 -252 -319 16 -9 56 27 288 259 l270 270 270 -270 c232 -232 272
-268 288 -259 43 27 30 44 -252 319 l-276 268 -2 216 c-3 209 -4 216 -23 219
-12 2 -24 0 -28 -4z"/>
<path d="M1092 568 l-2 -178 -417 -2 -418 -3 0 -25 0 -25 1025 0 1025 0 0 25
0 25 -470 6 c-259 3 -530 7 -602 8 l-133 1 -3 173 -3 172 -2 -177z"/>
<path d="M1197 733 c51 -2 135 -2 186 0 50 1 9 3 -93 3 -102 0 -143 -2 -93 -3z"/>
</g>
</svg>
